# .PCD v0.7 - Point Cloud Data file format
VERSION 0.7
FIELDS x y z intensity
SIZE 4 4 4 4
TYPE F F F F
COUNT 1 1 1 1
WIDTH 1762
HEIGHT 1
VIEWPOINT 0 0 0 1 0 0 0
POINTS 1762
DATA ascii
-6.000000000 -6.000000000 0.000000000 1.0
-6.000000000 -5.900000000 0.000000000 1.0
-5.900000000 -6.000000000 0.000000000 1.0
-5.900000000 -5.900000000 0.000000000 1.0
-6.000000000 -6.000000000 3.000000000 1.0
-6.000000000 -5.900000000 3.000000000 1.0
-5.900000000 -6.000000000 3.000000000 1.0
-5.900000000 -5.900000000 3.000000000 1.0
-6.000000000 6.000000000 0.000000000 1.0
-6.000000000 5.900000000 0.000000000 1.0
-5.900000000 6.000000000 0.000000000 1.0
-5.900000000 5.900000000 0.000000000 1.0
-6.000000000 6.000000000 3.000000000 1.0
-6.000000000 5.900000000 3.000000000 1.0
-5.900000000 6.000000000 3.000000000 1.0
-5.900000000 5.900000000 3.000000000 1.0
6.000000000 -6.000000000 0.000000000 1.0
6.000000000 -5.900000000 0.000000000 1.0
5.900000000 -6.000000000 0.000000000 1.0
5.900000000 -5.900000000 0.000000000 1.0
6.000000000 -6.000000000 3.000000000 1.0
6.000000000 -5.900000000 3.000000000 1.0
5.900000000 -6.000000000 3.000000000 1.0
5.900000000 -5.900000000 3.000000000 1.0
6.000000000 6.000000000 0.000000000 1.0
6.000000000 5.900000000 0.000000000 1.0
5.900000000 6.000000000 0.000000000 1.0
5.900000000 5.900000000 0.000000000 1.0
6.000000000 6.000000000 3.000000000 1.0
6.000000000 5.900000000 3.000000000 1.0
5.900000000 6.000000000 3.000000000 1.0
5.900000000 5.900000000 3.000000000 1.0
4.600000000 -0.300000000 0.900000000 1.0
4.600000000 -0.300000000 0.950000000 1.0
4.600000000 -0.300000000 1.000000000 1.0
4.600000000 -0.300000000 1.050000000 1.0
4.600000000 -0.300000000 1.100000000 1.0
4.600000000 -0.300000000 1.150000000 1.0
4.600000000 -0.300000000 1.200000000 1.0
4.600000000 -0.300000000 1.250000000 1.0
4.600000000 -0.300000000 1.300000000 1.0
4.600000000 -0.300000000 1.350000000 1.0
4.600000000 -0.300000000 1.400000000 1.0
4.600000000 -0.300000000 1.450000000 1.0
4.600000000 -0.300000000 1.500000000 1.0
4.600000000 -0.300000000 1.550000000 1.0
4.600000000 -0.300000000 1.600000000 1.0
4.600000000 -0.300000000 1.650000000 1.0
4.600000000 -0.300000000 1.700000000 1.0
4.600000000 -0.300000000 1.750000000 1.0
4.600000000 -0.300000000 1.800000000 1.0
4.600000000 -0.300000000 1.850000000 1.0
4.600000000 -0.300000000 1.900000000 1.0
4.600000000 -0.300000000 1.950000000 1.0
4.600000000 -0.300000000 2.000000000 1.0
4.600000000 -0.300000000 2.050000000 1.0
4.600000000 -0.300000000 2.100000000 1.0
4.600000000 -0.250000000 0.900000000 1.0
4.600000000 -0.250000000 0.950000000 1.0
4.600000000 -0.250000000 1.000000000 1.0
4.600000000 -0.250000000 1.050000000 1.0
4.600000000 -0.250000000 1.100000000 1.0
4.600000000 -0.250000000 1.150000000 1.0
4.600000000 -0.250000000 1.200000000 1.0
4.600000000 -0.250000000 1.250000000 1.0
4.600000000 -0.250000000 1.300000000 1.0
4.600000000 -0.250000000 1.350000000 1.0
4.600000000 -0.250000000 1.400000000 1.0
4.600000000 -0.250000000 1.450000000 1.0
4.600000000 -0.250000000 1.500000000 1.0
4.600000000 -0.250000000 1.550000000 1.0
4.600000000 -0.250000000 1.600000000 1.0
4.600000000 -0.250000000 1.650000000 1.0
4.600000000 -0.250000000 1.700000000 1.0
4.600000000 -0.250000000 1.750000000 1.0
4.600000000 -0.250000000 1.800000000 1.0
4.600000000 -0.250000000 1.850000000 1.0
4.600000000 -0.250000000 1.900000000 1.0
4.600000000 -0.250000000 1.950000000 1.0
4.600000000 -0.250000000 2.000000000 1.0
4.600000000 -0.250000000 2.050000000 1.0
4.600000000 -0.250000000 2.100000000 1.0
4.600000000 -0.200000000 0.900000000 1.0
4.600000000 -0.200000000 0.950000000 1.0
4.600000000 -0.200000000 1.000000000 1.0
4.600000000 -0.200000000 1.050000000 1.0
4.600000000 -0.200000000 1.100000000 1.0
4.600000000 -0.200000000 1.150000000 1.0
4.600000000 -0.200000000 1.200000000 1.0
4.600000000 -0.200000000 1.250000000 1.0
4.600000000 -0.200000000 1.300000000 1.0
4.600000000 -0.200000000 1.350000000 1.0
4.600000000 -0.200000000 1.400000000 1.0
4.600000000 -0.200000000 1.450000000 1.0
4.600000000 -0.200000000 1.500000000 1.0
4.600000000 -0.200000000 1.550000000 1.0
4.600000000 -0.200000000 1.600000000 1.0
4.600000000 -0.200000000 1.650000000 1.0
4.600000000 -0.200000000 1.700000000 1.0
4.600000000 -0.200000000 1.750000000 1.0
4.600000000 -0.200000000 1.800000000 1.0
4.600000000 -0.200000000 1.850000000 1.0
4.600000000 -0.200000000 1.900000000 1.0
4.600000000 -0.200000000 1.950000000 1.0
4.600000000 -0.200000000 2.000000000 1.0
4.600000000 -0.200000000 2.050000000 1.0
4.600000000 -0.200000000 2.100000000 1.0
4.600000000 -0.150000000 0.900000000 1.0
4.600000000 -0.150000000 0.950000000 1.0
4.600000000 -0.150000000 1.000000000 1.0
4.600000000 -0.150000000 1.050000000 1.0
4.600000000 -0.150000000 1.100000000 1.0
4.600000000 -0.150000000 1.150000000 1.0
4.600000000 -0.150000000 1.200000000 1.0
4.600000000 -0.150000000 1.250000000 1.0
4.600000000 -0.150000000 1.300000000 1.0
4.600000000 -0.150000000 1.350000000 1.0
4.600000000 -0.150000000 1.400000000 1.0
4.600000000 -0.150000000 1.450000000 1.0
4.600000000 -0.150000000 1.500000000 1.0
4.600000000 -0.150000000 1.550000000 1.0
4.600000000 -0.150000000 1.600000000 1.0
4.600000000 -0.150000000 1.650000000 1.0
4.600000000 -0.150000000 1.700000000 1.0
4.600000000 -0.150000000 1.750000000 1.0
4.600000000 -0.150000000 1.800000000 1.0
4.600000000 -0.150000000 1.850000000 1.0
4.600000000 -0.150000000 1.900000000 1.0
4.600000000 -0.150000000 1.950000000 1.0
4.600000000 -0.150000000 2.000000000 1.0
4.600000000 -0.150000000 2.050000000 1.0
4.600000000 -0.150000000 2.100000000 1.0
4.600000000 -0.100000000 0.900000000 1.0
4.600000000 -0.100000000 0.950000000 1.0
4.600000000 -0.100000000 1.000000000 1.0
4.600000000 -0.100000000 1.050000000 1.0
4.600000000 -0.100000000 1.100000000 1.0
4.600000000 -0.100000000 1.150000000 1.0
4.600000000 -0.100000000 1.200000000 1.0
4.600000000 -0.100000000 1.250000000 1.0
4.600000000 -0.100000000 1.300000000 1.0
4.600000000 -0.100000000 1.350000000 1.0
4.600000000 -0.100000000 1.400000000 1.0
4.600000000 -0.100000000 1.450000000 1.0
4.600000000 -0.100000000 1.500000000 1.0
4.600000000 -0.100000000 1.550000000 1.0
4.600000000 -0.100000000 1.600000000 1.0
4.600000000 -0.100000000 1.650000000 1.0
4.600000000 -0.100000000 1.700000000 1.0
4.600000000 -0.100000000 1.750000000 1.0
4.600000000 -0.100000000 1.800000000 1.0
4.600000000 -0.100000000 1.850000000 1.0
4.600000000 -0.100000000 1.900000000 1.0
4.600000000 -0.100000000 1.950000000 1.0
4.600000000 -0.100000000 2.000000000 1.0
4.600000000 -0.100000000 2.050000000 1.0
4.600000000 -0.100000000 2.100000000 1.0
4.600000000 -0.050000000 0.900000000 1.0
4.600000000 -0.050000000 0.950000000 1.0
4.600000000 -0.050000000 1.000000000 1.0
4.600000000 -0.050000000 1.050000000 1.0
4.600000000 -0.050000000 1.100000000 1.0
4.600000000 -0.050000000 1.150000000 1.0
4.600000000 -0.050000000 1.200000000 1.0
4.600000000 -0.050000000 1.250000000 1.0
4.600000000 -0.050000000 1.300000000 1.0
4.600000000 -0.050000000 1.350000000 1.0
4.600000000 -0.050000000 1.400000000 1.0
4.600000000 -0.050000000 1.450000000 1.0
4.600000000 -0.050000000 1.500000000 1.0
4.600000000 -0.050000000 1.550000000 1.0
4.600000000 -0.050000000 1.600000000 1.0
4.600000000 -0.050000000 1.650000000 1.0
4.600000000 -0.050000000 1.700000000 1.0
4.600000000 -0.050000000 1.750000000 1.0
4.600000000 -0.050000000 1.800000000 1.0
4.600000000 -0.050000000 1.850000000 1.0
4.600000000 -0.050000000 1.900000000 1.0
4.600000000 -0.050000000 1.950000000 1.0
4.600000000 -0.050000000 2.000000000 1.0
4.600000000 -0.050000000 2.050000000 1.0
4.600000000 -0.050000000 2.100000000 1.0
4.600000000 0.000000000 0.900000000 1.0
4.600000000 0.000000000 0.950000000 1.0
4.600000000 0.000000000 1.000000000 1.0
4.600000000 0.000000000 1.050000000 1.0
4.600000000 0.000000000 1.100000000 1.0
4.600000000 0.000000000 1.150000000 1.0
4.600000000 0.000000000 1.200000000 1.0
4.600000000 0.000000000 1.250000000 1.0
4.600000000 0.000000000 1.300000000 1.0
4.600000000 0.000000000 1.350000000 1.0
4.600000000 0.000000000 1.400000000 1.0
4.600000000 0.000000000 1.450000000 1.0
4.600000000 0.000000000 1.500000000 1.0
4.600000000 0.000000000 1.550000000 1.0
4.600000000 0.000000000 1.600000000 1.0
4.600000000 0.000000000 1.650000000 1.0
4.600000000 0.000000000 1.700000000 1.0
4.600000000 0.000000000 1.750000000 1.0
4.600000000 0.000000000 1.800000000 1.0
4.600000000 0.000000000 1.850000000 1.0
4.600000000 0.000000000 1.900000000 1.0
4.600000000 0.000000000 1.950000000 1.0
4.600000000 0.000000000 2.000000000 1.0
4.600000000 0.000000000 2.050000000 1.0
4.600000000 0.000000000 2.100000000 1.0
4.600000000 0.050000000 0.900000000 1.0
4.600000000 0.050000000 0.950000000 1.0
4.600000000 0.050000000 1.000000000 1.0
4.600000000 0.050000000 1.050000000 1.0
4.600000000 0.050000000 1.100000000 1.0
4.600000000 0.050000000 1.150000000 1.0
4.600000000 0.050000000 1.200000000 1.0
4.600000000 0.050000000 1.250000000 1.0
4.600000000 0.050000000 1.300000000 1.0
4.600000000 0.050000000 1.350000000 1.0
4.600000000 0.050000000 1.400000000 1.0
4.600000000 0.050000000 1.450000000 1.0
4.600000000 0.050000000 1.500000000 1.0
4.600000000 0.050000000 1.550000000 1.0
4.600000000 0.050000000 1.600000000 1.0
4.600000000 0.050000000 1.650000000 1.0
4.600000000 0.050000000 1.700000000 1.0
4.600000000 0.050000000 1.750000000 1.0
4.600000000 0.050000000 1.800000000 1.0
4.600000000 0.050000000 1.850000000 1.0
4.600000000 0.050000000 1.900000000 1.0
4.600000000 0.050000000 1.950000000 1.0
4.600000000 0.050000000 2.000000000 1.0
4.600000000 0.050000000 2.050000000 1.0
4.600000000 0.050000000 2.100000000 1.0
4.600000000 0.100000000 0.900000000 1.0
4.600000000 0.100000000 0.950000000 1.0
4.600000000 0.100000000 1.000000000 1.0
4.600000000 0.100000000 1.050000000 1.0
4.600000000 0.100000000 1.100000000 1.0
4.600000000 0.100000000 1.150000000 1.0
4.600000000 0.100000000 1.200000000 1.0
4.600000000 0.100000000 1.250000000 1.0
4.600000000 0.100000000 1.300000000 1.0
4.600000000 0.100000000 1.350000000 1.0
4.600000000 0.100000000 1.400000000 1.0
4.600000000 0.100000000 1.450000000 1.0
4.600000000 0.100000000 1.500000000 1.0
4.600000000 0.100000000 1.550000000 1.0
4.600000000 0.100000000 1.600000000 1.0
4.600000000 0.100000000 1.650000000 1.0
4.600000000 0.100000000 1.700000000 1.0
4.600000000 0.100000000 1.750000000 1.0
4.600000000 0.100000000 1.800000000 1.0
4.600000000 0.100000000 1.850000000 1.0
4.600000000 0.100000000 1.900000000 1.0
4.600000000 0.100000000 1.950000000 1.0
4.600000000 0.100000000 2.000000000 1.0
4.600000000 0.100000000 2.050000000 1.0
4.600000000 0.100000000 2.100000000 1.0
4.600000000 0.150000000 0.900000000 1.0
4.600000000 0.150000000 0.950000000 1.0
4.600000000 0.150000000 1.000000000 1.0
4.600000000 0.150000000 1.050000000 1.0
4.600000000 0.150000000 1.100000000 1.0
4.600000000 0.150000000 1.150000000 1.0
4.600000000 0.150000000 1.200000000 1.0
4.600000000 0.150000000 1.250000000 1.0
4.600000000 0.150000000 1.300000000 1.0
4.600000000 0.150000000 1.350000000 1.0
4.600000000 0.150000000 1.400000000 1.0
4.600000000 0.150000000 1.450000000 1.0
4.600000000 0.150000000 1.500000000 1.0
4.600000000 0.150000000 1.550000000 1.0
4.600000000 0.150000000 1.600000000 1.0
4.600000000 0.150000000 1.650000000 1.0
4.600000000 0.150000000 1.700000000 1.0
4.600000000 0.150000000 1.750000000 1.0
4.600000000 0.150000000 1.800000000 1.0
4.600000000 0.150000000 1.850000000 1.0
4.600000000 0.150000000 1.900000000 1.0
4.600000000 0.150000000 1.950000000 1.0
4.600000000 0.150000000 2.000000000 1.0
4.600000000 0.150000000 2.050000000 1.0
4.600000000 0.150000000 2.100000000 1.0
4.600000000 0.200000000 0.900000000 1.0
4.600000000 0.200000000 0.950000000 1.0
4.600000000 0.200000000 1.000000000 1.0
4.600000000 0.200000000 1.050000000 1.0
4.600000000 0.200000000 1.100000000 1.0
4.600000000 0.200000000 1.150000000 1.0
4.600000000 0.200000000 1.200000000 1.0
4.600000000 0.200000000 1.250000000 1.0
4.600000000 0.200000000 1.300000000 1.0
4.600000000 0.200000000 1.350000000 1.0
4.600000000 0.200000000 1.400000000 1.0
4.600000000 0.200000000 1.450000000 1.0
4.600000000 0.200000000 1.500000000 1.0
4.600000000 0.200000000 1.550000000 1.0
4.600000000 0.200000000 1.600000000 1.0
4.600000000 0.200000000 1.650000000 1.0
4.600000000 0.200000000 1.700000000 1.0
4.600000000 0.200000000 1.750000000 1.0
4.600000000 0.200000000 1.800000000 1.0
4.600000000 0.200000000 1.850000000 1.0
4.600000000 0.200000000 1.900000000 1.0
4.600000000 0.200000000 1.950000000 1.0
4.600000000 0.200000000 2.000000000 1.0
4.600000000 0.200000000 2.050000000 1.0
4.600000000 0.200000000 2.100000000 1.0
4.600000000 0.250000000 0.900000000 1.0
4.600000000 0.250000000 0.950000000 1.0
4.600000000 0.250000000 1.000000000 1.0
4.600000000 0.250000000 1.050000000 1.0
4.600000000 0.250000000 1.100000000 1.0
4.600000000 0.250000000 1.150000000 1.0
4.600000000 0.250000000 1.200000000 1.0
4.600000000 0.250000000 1.250000000 1.0
4.600000000 0.250000000 1.300000000 1.0
4.600000000 0.250000000 1.350000000 1.0
4.600000000 0.250000000 1.400000000 1.0
4.600000000 0.250000000 1.450000000 1.0
4.600000000 0.250000000 1.500000000 1.0
4.600000000 0.250000000 1.550000000 1.0
4.600000000 0.250000000 1.600000000 1.0
4.600000000 0.250000000 1.650000000 1.0
4.600000000 0.250000000 1.700000000 1.0
4.600000000 0.250000000 1.750000000 1.0
4.600000000 0.250000000 1.800000000 1.0
4.600000000 0.250000000 1.850000000 1.0
4.600000000 0.250000000 1.900000000 1.0
4.600000000 0.250000000 1.950000000 1.0
4.600000000 0.250000000 2.000000000 1.0
4.600000000 0.250000000 2.050000000 1.0
4.600000000 0.250000000 2.100000000 1.0
4.600000000 0.300000000 0.900000000 1.0
4.600000000 0.300000000 0.950000000 1.0
4.600000000 0.300000000 1.000000000 1.0
4.600000000 0.300000000 1.050000000 1.0
4.600000000 0.300000000 1.100000000 1.0
4.600000000 0.300000000 1.150000000 1.0
4.600000000 0.300000000 1.200000000 1.0
4.600000000 0.300000000 1.250000000 1.0
4.600000000 0.300000000 1.300000000 1.0
4.600000000 0.300000000 1.350000000 1.0
4.600000000 0.300000000 1.400000000 1.0
4.600000000 0.300000000 1.450000000 1.0
4.600000000 0.300000000 1.500000000 1.0
4.600000000 0.300000000 1.550000000 1.0
4.600000000 0.300000000 1.600000000 1.0
4.600000000 0.300000000 1.650000000 1.0
4.600000000 0.300000000 1.700000000 1.0
4.600000000 0.300000000 1.750000000 1.0
4.600000000 0.300000000 1.800000000 1.0
4.600000000 0.300000000 1.850000000 1.0
4.600000000 0.300000000 1.900000000 1.0
4.600000000 0.300000000 1.950000000 1.0
4.600000000 0.300000000 2.000000000 1.0
4.600000000 0.300000000 2.050000000 1.0
4.600000000 0.300000000 2.100000000 1.0
4.650000000 -0.300000000 0.900000000 1.0
4.650000000 -0.300000000 0.950000000 1.0
4.650000000 -0.300000000 1.000000000 1.0
4.650000000 -0.300000000 1.050000000 1.0
4.650000000 -0.300000000 1.100000000 1.0
4.650000000 -0.300000000 1.150000000 1.0
4.650000000 -0.300000000 1.200000000 1.0
4.650000000 -0.300000000 1.250000000 1.0
4.650000000 -0.300000000 1.300000000 1.0
4.650000000 -0.300000000 1.350000000 1.0
4.650000000 -0.300000000 1.400000000 1.0
4.650000000 -0.300000000 1.450000000 1.0
4.650000000 -0.300000000 1.500000000 1.0
4.650000000 -0.300000000 1.550000000 1.0
4.650000000 -0.300000000 1.600000000 1.0
4.650000000 -0.300000000 1.650000000 1.0
4.650000000 -0.300000000 1.700000000 1.0
4.650000000 -0.300000000 1.750000000 1.0
4.650000000 -0.300000000 1.800000000 1.0
4.650000000 -0.300000000 1.850000000 1.0
4.650000000 -0.300000000 1.900000000 1.0
4.650000000 -0.300000000 1.950000000 1.0
4.650000000 -0.300000000 2.000000000 1.0
4.650000000 -0.300000000 2.050000000 1.0
4.650000000 -0.300000000 2.100000000 1.0
4.650000000 -0.250000000 0.900000000 1.0
4.650000000 -0.250000000 2.100000000 1.0
4.650000000 -0.200000000 0.900000000 1.0
4.650000000 -0.200000000 2.100000000 1.0
4.650000000 -0.150000000 0.900000000 1.0
4.650000000 -0.150000000 2.100000000 1.0
4.650000000 -0.100000000 0.900000000 1.0
4.650000000 -0.100000000 2.100000000 1.0
4.650000000 -0.050000000 0.900000000 1.0
4.650000000 -0.050000000 2.100000000 1.0
4.650000000 0.000000000 0.900000000 1.0
4.650000000 0.000000000 2.100000000 1.0
4.650000000 0.050000000 0.900000000 1.0
4.650000000 0.050000000 2.100000000 1.0
4.650000000 0.100000000 0.900000000 1.0
4.650000000 0.100000000 2.100000000 1.0
4.650000000 0.150000000 0.900000000 1.0
4.650000000 0.150000000 2.100000000 1.0
4.650000000 0.200000000 0.900000000 1.0
4.650000000 0.200000000 2.100000000 1.0
4.650000000 0.250000000 0.900000000 1.0
4.650000000 0.250000000 2.100000000 1.0
4.650000000 0.300000000 0.900000000 1.0
4.650000000 0.300000000 0.950000000 1.0
4.650000000 0.300000000 1.000000000 1.0
4.650000000 0.300000000 1.050000000 1.0
4.650000000 0.300000000 1.100000000 1.0
4.650000000 0.300000000 1.150000000 1.0
4.650000000 0.300000000 1.200000000 1.0
4.650000000 0.300000000 1.250000000 1.0
4.650000000 0.300000000 1.300000000 1.0
4.650000000 0.300000000 1.350000000 1.0
4.650000000 0.300000000 1.400000000 1.0
4.650000000 0.300000000 1.450000000 1.0
4.650000000 0.300000000 1.500000000 1.0
4.650000000 0.300000000 1.550000000 1.0
4.650000000 0.300000000 1.600000000 1.0
4.650000000 0.300000000 1.650000000 1.0
4.650000000 0.300000000 1.700000000 1.0
4.650000000 0.300000000 1.750000000 1.0
4.650000000 0.300000000 1.800000000 1.0
4.650000000 0.300000000 1.850000000 1.0
4.650000000 0.300000000 1.900000000 1.0
4.650000000 0.300000000 1.950000000 1.0
4.650000000 0.300000000 2.000000000 1.0
4.650000000 0.300000000 2.050000000 1.0
4.650000000 0.300000000 2.100000000 1.0
4.700000000 -0.300000000 0.900000000 1.0
4.700000000 -0.300000000 0.950000000 1.0
4.700000000 -0.300000000 1.000000000 1.0
4.700000000 -0.300000000 1.050000000 1.0
4.700000000 -0.300000000 1.100000000 1.0
4.700000000 -0.300000000 1.150000000 1.0
4.700000000 -0.300000000 1.200000000 1.0
4.700000000 -0.300000000 1.250000000 1.0
4.700000000 -0.300000000 1.300000000 1.0
4.700000000 -0.300000000 1.350000000 1.0
4.700000000 -0.300000000 1.400000000 1.0
4.700000000 -0.300000000 1.450000000 1.0
4.700000000 -0.300000000 1.500000000 1.0
4.700000000 -0.300000000 1.550000000 1.0
4.700000000 -0.300000000 1.600000000 1.0
4.700000000 -0.300000000 1.650000000 1.0
4.700000000 -0.300000000 1.700000000 1.0
4.700000000 -0.300000000 1.750000000 1.0
4.700000000 -0.300000000 1.800000000 1.0
4.700000000 -0.300000000 1.850000000 1.0
4.700000000 -0.300000000 1.900000000 1.0
4.700000000 -0.300000000 1.950000000 1.0
4.700000000 -0.300000000 2.000000000 1.0
4.700000000 -0.300000000 2.050000000 1.0
4.700000000 -0.300000000 2.100000000 1.0
4.700000000 -0.250000000 0.900000000 1.0
4.700000000 -0.250000000 2.100000000 1.0
4.700000000 -0.200000000 0.900000000 1.0
4.700000000 -0.200000000 2.100000000 1.0
4.700000000 -0.150000000 0.900000000 1.0
4.700000000 -0.150000000 2.100000000 1.0
4.700000000 -0.100000000 0.900000000 1.0
4.700000000 -0.100000000 2.100000000 1.0
4.700000000 -0.050000000 0.900000000 1.0
4.700000000 -0.050000000 2.100000000 1.0
4.700000000 0.000000000 0.900000000 1.0
4.700000000 0.000000000 2.100000000 1.0
4.700000000 0.050000000 0.900000000 1.0
4.700000000 0.050000000 2.100000000 1.0
4.700000000 0.100000000 0.900000000 1.0
4.700000000 0.100000000 2.100000000 1.0
4.700000000 0.150000000 0.900000000 1.0
4.700000000 0.150000000 2.100000000 1.0
4.700000000 0.200000000 0.900000000 1.0
4.700000000 0.200000000 2.100000000 1.0
4.700000000 0.250000000 0.900000000 1.0
4.700000000 0.250000000 2.100000000 1.0
4.700000000 0.300000000 0.900000000 1.0
4.700000000 0.300000000 0.950000000 1.0
4.700000000 0.300000000 1.000000000 1.0
4.700000000 0.300000000 1.050000000 1.0
4.700000000 0.300000000 1.100000000 1.0
4.700000000 0.300000000 1.150000000 1.0
4.700000000 0.300000000 1.200000000 1.0
4.700000000 0.300000000 1.250000000 1.0
4.700000000 0.300000000 1.300000000 1.0
4.700000000 0.300000000 1.350000000 1.0
4.700000000 0.300000000 1.400000000 1.0
4.700000000 0.300000000 1.450000000 1.0
4.700000000 0.300000000 1.500000000 1.0
4.700000000 0.300000000 1.550000000 1.0
4.700000000 0.300000000 1.600000000 1.0
4.700000000 0.300000000 1.650000000 1.0
4.700000000 0.300000000 1.700000000 1.0
4.700000000 0.300000000 1.750000000 1.0
4.700000000 0.300000000 1.800000000 1.0
4.700000000 0.300000000 1.850000000 1.0
4.700000000 0.300000000 1.900000000 1.0
4.700000000 0.300000000 1.950000000 1.0
4.700000000 0.300000000 2.000000000 1.0
4.700000000 0.300000000 2.050000000 1.0
4.700000000 0.300000000 2.100000000 1.0
4.750000000 -0.300000000 0.900000000 1.0
4.750000000 -0.300000000 0.950000000 1.0
4.750000000 -0.300000000 1.000000000 1.0
4.750000000 -0.300000000 1.050000000 1.0
4.750000000 -0.300000000 1.100000000 1.0
4.750000000 -0.300000000 1.150000000 1.0
4.750000000 -0.300000000 1.200000000 1.0
4.750000000 -0.300000000 1.250000000 1.0
4.750000000 -0.300000000 1.300000000 1.0
4.750000000 -0.300000000 1.350000000 1.0
4.750000000 -0.300000000 1.400000000 1.0
4.750000000 -0.300000000 1.450000000 1.0
4.750000000 -0.300000000 1.500000000 1.0
4.750000000 -0.300000000 1.550000000 1.0
4.750000000 -0.300000000 1.600000000 1.0
4.750000000 -0.300000000 1.650000000 1.0
4.750000000 -0.300000000 1.700000000 1.0
4.750000000 -0.300000000 1.750000000 1.0
4.750000000 -0.300000000 1.800000000 1.0
4.750000000 -0.300000000 1.850000000 1.0
4.750000000 -0.300000000 1.900000000 1.0
4.750000000 -0.300000000 1.950000000 1.0
4.750000000 -0.300000000 2.000000000 1.0
4.750000000 -0.300000000 2.050000000 1.0
4.750000000 -0.300000000 2.100000000 1.0
4.750000000 -0.250000000 0.900000000 1.0
4.750000000 -0.250000000 2.100000000 1.0
4.750000000 -0.200000000 0.900000000 1.0
4.750000000 -0.200000000 2.100000000 1.0
4.750000000 -0.150000000 0.900000000 1.0
4.750000000 -0.150000000 2.100000000 1.0
4.750000000 -0.100000000 0.900000000 1.0
4.750000000 -0.100000000 2.100000000 1.0
4.750000000 -0.050000000 0.900000000 1.0
4.750000000 -0.050000000 2.100000000 1.0
4.750000000 0.000000000 0.900000000 1.0
4.750000000 0.000000000 2.100000000 1.0
4.750000000 0.050000000 0.900000000 1.0
4.750000000 0.050000000 2.100000000 1.0
4.750000000 0.100000000 0.900000000 1.0
4.750000000 0.100000000 2.100000000 1.0
4.750000000 0.150000000 0.900000000 1.0
4.750000000 0.150000000 2.100000000 1.0
4.750000000 0.200000000 0.900000000 1.0
4.750000000 0.200000000 2.100000000 1.0
4.750000000 0.250000000 0.900000000 1.0
4.750000000 0.250000000 2.100000000 1.0
4.750000000 0.300000000 0.900000000 1.0
4.750000000 0.300000000 0.950000000 1.0
4.750000000 0.300000000 1.000000000 1.0
4.750000000 0.300000000 1.050000000 1.0
4.750000000 0.300000000 1.100000000 1.0
4.750000000 0.300000000 1.150000000 1.0
4.750000000 0.300000000 1.200000000 1.0
4.750000000 0.300000000 1.250000000 1.0
4.750000000 0.300000000 1.300000000 1.0
4.750000000 0.300000000 1.350000000 1.0
4.750000000 0.300000000 1.400000000 1.0
4.750000000 0.300000000 1.450000000 1.0
4.750000000 0.300000000 1.500000000 1.0
4.750000000 0.300000000 1.550000000 1.0
4.750000000 0.300000000 1.600000000 1.0
4.750000000 0.300000000 1.650000000 1.0
4.750000000 0.300000000 1.700000000 1.0
4.750000000 0.300000000 1.750000000 1.0
4.750000000 0.300000000 1.800000000 1.0
4.750000000 0.300000000 1.850000000 1.0
4.750000000 0.300000000 1.900000000 1.0
4.750000000 0.300000000 1.950000000 1.0
4.750000000 0.300000000 2.000000000 1.0
4.750000000 0.300000000 2.050000000 1.0
4.750000000 0.300000000 2.100000000 1.0
4.800000000 -0.300000000 0.900000000 1.0
4.800000000 -0.300000000 0.950000000 1.0
4.800000000 -0.300000000 1.000000000 1.0
4.800000000 -0.300000000 1.050000000 1.0
4.800000000 -0.300000000 1.100000000 1.0
4.800000000 -0.300000000 1.150000000 1.0
4.800000000 -0.300000000 1.200000000 1.0
4.800000000 -0.300000000 1.250000000 1.0
4.800000000 -0.300000000 1.300000000 1.0
4.800000000 -0.300000000 1.350000000 1.0
4.800000000 -0.300000000 1.400000000 1.0
4.800000000 -0.300000000 1.450000000 1.0
4.800000000 -0.300000000 1.500000000 1.0
4.800000000 -0.300000000 1.550000000 1.0
4.800000000 -0.300000000 1.600000000 1.0
4.800000000 -0.300000000 1.650000000 1.0
4.800000000 -0.300000000 1.700000000 1.0
4.800000000 -0.300000000 1.750000000 1.0
4.800000000 -0.300000000 1.800000000 1.0
4.800000000 -0.300000000 1.850000000 1.0
4.800000000 -0.300000000 1.900000000 1.0
4.800000000 -0.300000000 1.950000000 1.0
4.800000000 -0.300000000 2.000000000 1.0
4.800000000 -0.300000000 2.050000000 1.0
4.800000000 -0.300000000 2.100000000 1.0
4.800000000 -0.250000000 0.900000000 1.0
4.800000000 -0.250000000 2.100000000 1.0
4.800000000 -0.200000000 0.900000000 1.0
4.800000000 -0.200000000 2.100000000 1.0
4.800000000 -0.150000000 0.900000000 1.0
4.800000000 -0.150000000 2.100000000 1.0
4.800000000 -0.100000000 0.900000000 1.0
4.800000000 -0.100000000 2.100000000 1.0
4.800000000 -0.050000000 0.900000000 1.0
4.800000000 -0.050000000 2.100000000 1.0
4.800000000 0.000000000 0.900000000 1.0
4.800000000 0.000000000 2.100000000 1.0
4.800000000 0.050000000 0.900000000 1.0
4.800000000 0.050000000 2.100000000 1.0
4.800000000 0.100000000 0.900000000 1.0
4.800000000 0.100000000 2.100000000 1.0
4.800000000 0.150000000 0.900000000 1.0
4.800000000 0.150000000 2.100000000 1.0
4.800000000 0.200000000 0.900000000 1.0
4.800000000 0.200000000 2.100000000 1.0
4.800000000 0.250000000 0.900000000 1.0
4.800000000 0.250000000 2.100000000 1.0
4.800000000 0.300000000 0.900000000 1.0
4.800000000 0.300000000 0.950000000 1.0
4.800000000 0.300000000 1.000000000 1.0
4.800000000 0.300000000 1.050000000 1.0
4.800000000 0.300000000 1.100000000 1.0
4.800000000 0.300000000 1.150000000 1.0
4.800000000 0.300000000 1.200000000 1.0
4.800000000 0.300000000 1.250000000 1.0
4.800000000 0.300000000 1.300000000 1.0
4.800000000 0.300000000 1.350000000 1.0
4.800000000 0.300000000 1.400000000 1.0
4.800000000 0.300000000 1.450000000 1.0
4.800000000 0.300000000 1.500000000 1.0
4.800000000 0.300000000 1.550000000 1.0
4.800000000 0.300000000 1.600000000 1.0
4.800000000 0.300000000 1.650000000 1.0
4.800000000 0.300000000 1.700000000 1.0
4.800000000 0.300000000 1.750000000 1.0
4.800000000 0.300000000 1.800000000 1.0
4.800000000 0.300000000 1.850000000 1.0
4.800000000 0.300000000 1.900000000 1.0
4.800000000 0.300000000 1.950000000 1.0
4.800000000 0.300000000 2.000000000 1.0
4.800000000 0.300000000 2.050000000 1.0
4.800000000 0.300000000 2.100000000 1.0
4.850000000 -0.300000000 0.900000000 1.0
4.850000000 -0.300000000 0.950000000 1.0
4.850000000 -0.300000000 1.000000000 1.0
4.850000000 -0.300000000 1.050000000 1.0
4.850000000 -0.300000000 1.100000000 1.0
4.850000000 -0.300000000 1.150000000 1.0
4.850000000 -0.300000000 1.200000000 1.0
4.850000000 -0.300000000 1.250000000 1.0
4.850000000 -0.300000000 1.300000000 1.0
4.850000000 -0.300000000 1.350000000 1.0
4.850000000 -0.300000000 1.400000000 1.0
4.850000000 -0.300000000 1.450000000 1.0
4.850000000 -0.300000000 1.500000000 1.0
4.850000000 -0.300000000 1.550000000 1.0
4.850000000 -0.300000000 1.600000000 1.0
4.850000000 -0.300000000 1.650000000 1.0
4.850000000 -0.300000000 1.700000000 1.0
4.850000000 -0.300000000 1.750000000 1.0
4.850000000 -0.300000000 1.800000000 1.0
4.850000000 -0.300000000 1.850000000 1.0
4.850000000 -0.300000000 1.900000000 1.0
4.850000000 -0.300000000 1.950000000 1.0
4.850000000 -0.300000000 2.000000000 1.0
4.850000000 -0.300000000 2.050000000 1.0
4.850000000 -0.300000000 2.100000000 1.0
4.850000000 -0.250000000 0.900000000 1.0
4.850000000 -0.250000000 2.100000000 1.0
4.850000000 -0.200000000 0.900000000 1.0
4.850000000 -0.200000000 2.100000000 1.0
4.850000000 -0.150000000 0.900000000 1.0
4.850000000 -0.150000000 2.100000000 1.0
4.850000000 -0.100000000 0.900000000 1.0
4.850000000 -0.100000000 2.100000000 1.0
4.850000000 -0.050000000 0.900000000 1.0
4.850000000 -0.050000000 2.100000000 1.0
4.850000000 0.000000000 0.900000000 1.0
4.850000000 0.000000000 2.100000000 1.0
4.850000000 0.050000000 0.900000000 1.0
4.850000000 0.050000000 2.100000000 1.0
4.850000000 0.100000000 0.900000000 1.0
4.850000000 0.100000000 2.100000000 1.0
4.850000000 0.150000000 0.900000000 1.0
4.850000000 0.150000000 2.100000000 1.0
4.850000000 0.200000000 0.900000000 1.0
4.850000000 0.200000000 2.100000000 1.0
4.850000000 0.250000000 0.900000000 1.0
4.850000000 0.250000000 2.100000000 1.0
4.850000000 0.300000000 0.900000000 1.0
4.850000000 0.300000000 0.950000000 1.0
4.850000000 0.300000000 1.000000000 1.0
4.850000000 0.300000000 1.050000000 1.0
4.850000000 0.300000000 1.100000000 1.0
4.850000000 0.300000000 1.150000000 1.0
4.850000000 0.300000000 1.200000000 1.0
4.850000000 0.300000000 1.250000000 1.0
4.850000000 0.300000000 1.300000000 1.0
4.850000000 0.300000000 1.350000000 1.0
4.850000000 0.300000000 1.400000000 1.0
4.850000000 0.300000000 1.450000000 1.0
4.850000000 0.300000000 1.500000000 1.0
4.850000000 0.300000000 1.550000000 1.0
4.850000000 0.300000000 1.600000000 1.0
4.850000000 0.300000000 1.650000000 1.0
4.850000000 0.300000000 1.700000000 1.0
4.850000000 0.300000000 1.750000000 1.0
4.850000000 0.300000000 1.800000000 1.0
4.850000000 0.300000000 1.850000000 1.0
4.850000000 0.300000000 1.900000000 1.0
4.850000000 0.300000000 1.950000000 1.0
4.850000000 0.300000000 2.000000000 1.0
4.850000000 0.300000000 2.050000000 1.0
4.850000000 0.300000000 2.100000000 1.0
4.900000000 -0.300000000 0.900000000 1.0
4.900000000 -0.300000000 0.950000000 1.0
4.900000000 -0.300000000 1.000000000 1.0
4.900000000 -0.300000000 1.050000000 1.0
4.900000000 -0.300000000 1.100000000 1.0
4.900000000 -0.300000000 1.150000000 1.0
4.900000000 -0.300000000 1.200000000 1.0
4.900000000 -0.300000000 1.250000000 1.0
4.900000000 -0.300000000 1.300000000 1.0
4.900000000 -0.300000000 1.350000000 1.0
4.900000000 -0.300000000 1.400000000 1.0
4.900000000 -0.300000000 1.450000000 1.0
4.900000000 -0.300000000 1.500000000 1.0
4.900000000 -0.300000000 1.550000000 1.0
4.900000000 -0.300000000 1.600000000 1.0
4.900000000 -0.300000000 1.650000000 1.0
4.900000000 -0.300000000 1.700000000 1.0
4.900000000 -0.300000000 1.750000000 1.0
4.900000000 -0.300000000 1.800000000 1.0
4.900000000 -0.300000000 1.850000000 1.0
4.900000000 -0.300000000 1.900000000 1.0
4.900000000 -0.300000000 1.950000000 1.0
4.900000000 -0.300000000 2.000000000 1.0
4.900000000 -0.300000000 2.050000000 1.0
4.900000000 -0.300000000 2.100000000 1.0
4.900000000 -0.250000000 0.900000000 1.0
4.900000000 -0.250000000 2.100000000 1.0
4.900000000 -0.200000000 0.900000000 1.0
4.900000000 -0.200000000 2.100000000 1.0
4.900000000 -0.150000000 0.900000000 1.0
4.900000000 -0.150000000 2.100000000 1.0
4.900000000 -0.100000000 0.900000000 1.0
4.900000000 -0.100000000 2.100000000 1.0
4.900000000 -0.050000000 0.900000000 1.0
4.900000000 -0.050000000 2.100000000 1.0
4.900000000 0.000000000 0.900000000 1.0
4.900000000 0.000000000 2.100000000 1.0
4.900000000 0.050000000 0.900000000 1.0
4.900000000 0.050000000 2.100000000 1.0
4.900000000 0.100000000 0.900000000 1.0
4.900000000 0.100000000 2.100000000 1.0
4.900000000 0.150000000 0.900000000 1.0
4.900000000 0.150000000 2.100000000 1.0
4.900000000 0.200000000 0.900000000 1.0
4.900000000 0.200000000 2.100000000 1.0
4.900000000 0.250000000 0.900000000 1.0
4.900000000 0.250000000 2.100000000 1.0
4.900000000 0.300000000 0.900000000 1.0
4.900000000 0.300000000 0.950000000 1.0
4.900000000 0.300000000 1.000000000 1.0
4.900000000 0.300000000 1.050000000 1.0
4.900000000 0.300000000 1.100000000 1.0
4.900000000 0.300000000 1.150000000 1.0
4.900000000 0.300000000 1.200000000 1.0
4.900000000 0.300000000 1.250000000 1.0
4.900000000 0.300000000 1.300000000 1.0
4.900000000 0.300000000 1.350000000 1.0
4.900000000 0.300000000 1.400000000 1.0
4.900000000 0.300000000 1.450000000 1.0
4.900000000 0.300000000 1.500000000 1.0
4.900000000 0.300000000 1.550000000 1.0
4.900000000 0.300000000 1.600000000 1.0
4.900000000 0.300000000 1.650000000 1.0
4.900000000 0.300000000 1.700000000 1.0
4.900000000 0.300000000 1.750000000 1.0
4.900000000 0.300000000 1.800000000 1.0
4.900000000 0.300000000 1.850000000 1.0
4.900000000 0.300000000 1.900000000 1.0
4.900000000 0.300000000 1.950000000 1.0
4.900000000 0.300000000 2.000000000 1.0
4.900000000 0.300000000 2.050000000 1.0
4.900000000 0.300000000 2.100000000 1.0
4.950000000 -0.300000000 0.900000000 1.0
4.950000000 -0.300000000 0.950000000 1.0
4.950000000 -0.300000000 1.000000000 1.0
4.950000000 -0.300000000 1.050000000 1.0
4.950000000 -0.300000000 1.100000000 1.0
4.950000000 -0.300000000 1.150000000 1.0
4.950000000 -0.300000000 1.200000000 1.0
4.950000000 -0.300000000 1.250000000 1.0
4.950000000 -0.300000000 1.300000000 1.0
4.950000000 -0.300000000 1.350000000 1.0
4.950000000 -0.300000000 1.400000000 1.0
4.950000000 -0.300000000 1.450000000 1.0
4.950000000 -0.300000000 1.500000000 1.0
4.950000000 -0.300000000 1.550000000 1.0
4.950000000 -0.300000000 1.600000000 1.0
4.950000000 -0.300000000 1.650000000 1.0
4.950000000 -0.300000000 1.700000000 1.0
4.950000000 -0.300000000 1.750000000 1.0
4.950000000 -0.300000000 1.800000000 1.0
4.950000000 -0.300000000 1.850000000 1.0
4.950000000 -0.300000000 1.900000000 1.0
4.950000000 -0.300000000 1.950000000 1.0
4.950000000 -0.300000000 2.000000000 1.0
4.950000000 -0.300000000 2.050000000 1.0
4.950000000 -0.300000000 2.100000000 1.0
4.950000000 -0.250000000 0.900000000 1.0
4.950000000 -0.250000000 2.100000000 1.0
4.950000000 -0.200000000 0.900000000 1.0
4.950000000 -0.200000000 2.100000000 1.0
4.950000000 -0.150000000 0.900000000 1.0
4.950000000 -0.150000000 2.100000000 1.0
4.950000000 -0.100000000 0.900000000 1.0
4.950000000 -0.100000000 2.100000000 1.0
4.950000000 -0.050000000 0.900000000 1.0
4.950000000 -0.050000000 2.100000000 1.0
4.950000000 0.000000000 0.900000000 1.0
4.950000000 0.000000000 2.100000000 1.0
4.950000000 0.050000000 0.900000000 1.0
4.950000000 0.050000000 2.100000000 1.0
4.950000000 0.100000000 0.900000000 1.0
4.950000000 0.100000000 2.100000000 1.0
4.950000000 0.150000000 0.900000000 1.0
4.950000000 0.150000000 2.100000000 1.0
4.950000000 0.200000000 0.900000000 1.0
4.950000000 0.200000000 2.100000000 1.0
4.950000000 0.250000000 0.900000000 1.0
4.950000000 0.250000000 2.100000000 1.0
4.950000000 0.300000000 0.900000000 1.0
4.950000000 0.300000000 0.950000000 1.0
4.950000000 0.300000000 1.000000000 1.0
4.950000000 0.300000000 1.050000000 1.0
4.950000000 0.300000000 1.100000000 1.0
4.950000000 0.300000000 1.150000000 1.0
4.950000000 0.300000000 1.200000000 1.0
4.950000000 0.300000000 1.250000000 1.0
4.950000000 0.300000000 1.300000000 1.0
4.950000000 0.300000000 1.350000000 1.0
4.950000000 0.300000000 1.400000000 1.0
4.950000000 0.300000000 1.450000000 1.0
4.950000000 0.300000000 1.500000000 1.0
4.950000000 0.300000000 1.550000000 1.0
4.950000000 0.300000000 1.600000000 1.0
4.950000000 0.300000000 1.650000000 1.0
4.950000000 0.300000000 1.700000000 1.0
4.950000000 0.300000000 1.750000000 1.0
4.950000000 0.300000000 1.800000000 1.0
4.950000000 0.300000000 1.850000000 1.0
4.950000000 0.300000000 1.900000000 1.0
4.950000000 0.300000000 1.950000000 1.0
4.950000000 0.300000000 2.000000000 1.0
4.950000000 0.300000000 2.050000000 1.0
4.950000000 0.300000000 2.100000000 1.0
5.000000000 -0.300000000 0.900000000 1.0
5.000000000 -0.300000000 0.950000000 1.0
5.000000000 -0.300000000 1.000000000 1.0
5.000000000 -0.300000000 1.050000000 1.0
5.000000000 -0.300000000 1.100000000 1.0
5.000000000 -0.300000000 1.150000000 1.0
5.000000000 -0.300000000 1.200000000 1.0
5.000000000 -0.300000000 1.250000000 1.0
5.000000000 -0.300000000 1.300000000 1.0
5.000000000 -0.300000000 1.350000000 1.0
5.000000000 -0.300000000 1.400000000 1.0
5.000000000 -0.300000000 1.450000000 1.0
5.000000000 -0.300000000 1.500000000 1.0
5.000000000 -0.300000000 1.550000000 1.0
5.000000000 -0.300000000 1.600000000 1.0
5.000000000 -0.300000000 1.650000000 1.0
5.000000000 -0.300000000 1.700000000 1.0
5.000000000 -0.300000000 1.750000000 1.0
5.000000000 -0.300000000 1.800000000 1.0
5.000000000 -0.300000000 1.850000000 1.0
5.000000000 -0.300000000 1.900000000 1.0
5.000000000 -0.300000000 1.950000000 1.0
5.000000000 -0.300000000 2.000000000 1.0
5.000000000 -0.300000000 2.050000000 1.0
5.000000000 -0.300000000 2.100000000 1.0
5.000000000 -0.250000000 0.900000000 1.0
5.000000000 -0.250000000 2.100000000 1.0
5.000000000 -0.200000000 0.900000000 1.0
5.000000000 -0.200000000 2.100000000 1.0
5.000000000 -0.150000000 0.900000000 1.0
5.000000000 -0.150000000 2.100000000 1.0
5.000000000 -0.100000000 0.900000000 1.0
5.000000000 -0.100000000 2.100000000 1.0
5.000000000 -0.050000000 0.900000000 1.0
5.000000000 -0.050000000 2.100000000 1.0
5.000000000 0.000000000 0.900000000 1.0
5.000000000 0.000000000 2.100000000 1.0
5.000000000 0.050000000 0.900000000 1.0
5.000000000 0.050000000 2.100000000 1.0
5.000000000 0.100000000 0.900000000 1.0
5.000000000 0.100000000 2.100000000 1.0
5.000000000 0.150000000 0.900000000 1.0
5.000000000 0.150000000 2.100000000 1.0
5.000000000 0.200000000 0.900000000 1.0
5.000000000 0.200000000 2.100000000 1.0
5.000000000 0.250000000 0.900000000 1.0
5.000000000 0.250000000 2.100000000 1.0
5.000000000 0.300000000 0.900000000 1.0
5.000000000 0.300000000 0.950000000 1.0
5.000000000 0.300000000 1.000000000 1.0
5.000000000 0.300000000 1.050000000 1.0
5.000000000 0.300000000 1.100000000 1.0
5.000000000 0.300000000 1.150000000 1.0
5.000000000 0.300000000 1.200000000 1.0
5.000000000 0.300000000 1.250000000 1.0
5.000000000 0.300000000 1.300000000 1.0
5.000000000 0.300000000 1.350000000 1.0
5.000000000 0.300000000 1.400000000 1.0
5.000000000 0.300000000 1.450000000 1.0
5.000000000 0.300000000 1.500000000 1.0
5.000000000 0.300000000 1.550000000 1.0
5.000000000 0.300000000 1.600000000 1.0
5.000000000 0.300000000 1.650000000 1.0
5.000000000 0.300000000 1.700000000 1.0
5.000000000 0.300000000 1.750000000 1.0
5.000000000 0.300000000 1.800000000 1.0
5.000000000 0.300000000 1.850000000 1.0
5.000000000 0.300000000 1.900000000 1.0
5.000000000 0.300000000 1.950000000 1.0
5.000000000 0.300000000 2.000000000 1.0
5.000000000 0.300000000 2.050000000 1.0
5.000000000 0.300000000 2.100000000 1.0
5.050000000 -0.300000000 0.900000000 1.0
5.050000000 -0.300000000 0.950000000 1.0
5.050000000 -0.300000000 1.000000000 1.0
5.050000000 -0.300000000 1.050000000 1.0
5.050000000 -0.300000000 1.100000000 1.0
5.050000000 -0.300000000 1.150000000 1.0
5.050000000 -0.300000000 1.200000000 1.0
5.050000000 -0.300000000 1.250000000 1.0
5.050000000 -0.300000000 1.300000000 1.0
5.050000000 -0.300000000 1.350000000 1.0
5.050000000 -0.300000000 1.400000000 1.0
5.050000000 -0.300000000 1.450000000 1.0
5.050000000 -0.300000000 1.500000000 1.0
5.050000000 -0.300000000 1.550000000 1.0
5.050000000 -0.300000000 1.600000000 1.0
5.050000000 -0.300000000 1.650000000 1.0
5.050000000 -0.300000000 1.700000000 1.0
5.050000000 -0.300000000 1.750000000 1.0
5.050000000 -0.300000000 1.800000000 1.0
5.050000000 -0.300000000 1.850000000 1.0
5.050000000 -0.300000000 1.900000000 1.0
5.050000000 -0.300000000 1.950000000 1.0
5.050000000 -0.300000000 2.000000000 1.0
5.050000000 -0.300000000 2.050000000 1.0
5.050000000 -0.300000000 2.100000000 1.0
5.050000000 -0.250000000 0.900000000 1.0
5.050000000 -0.250000000 2.100000000 1.0
5.050000000 -0.200000000 0.900000000 1.0
5.050000000 -0.200000000 2.100000000 1.0
5.050000000 -0.150000000 0.900000000 1.0
5.050000000 -0.150000000 2.100000000 1.0
5.050000000 -0.100000000 0.900000000 1.0
5.050000000 -0.100000000 2.100000000 1.0
5.050000000 -0.050000000 0.900000000 1.0
5.050000000 -0.050000000 2.100000000 1.0
5.050000000 0.000000000 0.900000000 1.0
5.050000000 0.000000000 2.100000000 1.0
5.050000000 0.050000000 0.900000000 1.0
5.050000000 0.050000000 2.100000000 1.0
5.050000000 0.100000000 0.900000000 1.0
5.050000000 0.100000000 2.100000000 1.0
5.050000000 0.150000000 0.900000000 1.0
5.050000000 0.150000000 2.100000000 1.0
5.050000000 0.200000000 0.900000000 1.0
5.050000000 0.200000000 2.100000000 1.0
5.050000000 0.250000000 0.900000000 1.0
5.050000000 0.250000000 2.100000000 1.0
5.050000000 0.300000000 0.900000000 1.0
5.050000000 0.300000000 0.950000000 1.0
5.050000000 0.300000000 1.000000000 1.0
5.050000000 0.300000000 1.050000000 1.0
5.050000000 0.300000000 1.100000000 1.0
5.050000000 0.300000000 1.150000000 1.0
5.050000000 0.300000000 1.200000000 1.0
5.050000000 0.300000000 1.250000000 1.0
5.050000000 0.300000000 1.300000000 1.0
5.050000000 0.300000000 1.350000000 1.0
5.050000000 0.300000000 1.400000000 1.0
5.050000000 0.300000000 1.450000000 1.0
5.050000000 0.300000000 1.500000000 1.0
5.050000000 0.300000000 1.550000000 1.0
5.050000000 0.300000000 1.600000000 1.0
5.050000000 0.300000000 1.650000000 1.0
5.050000000 0.300000000 1.700000000 1.0
5.050000000 0.300000000 1.750000000 1.0
5.050000000 0.300000000 1.800000000 1.0
5.050000000 0.300000000 1.850000000 1.0
5.050000000 0.300000000 1.900000000 1.0
5.050000000 0.300000000 1.950000000 1.0
5.050000000 0.300000000 2.000000000 1.0
5.050000000 0.300000000 2.050000000 1.0
5.050000000 0.300000000 2.100000000 1.0
5.100000000 -0.300000000 0.900000000 1.0
5.100000000 -0.300000000 0.950000000 1.0
5.100000000 -0.300000000 1.000000000 1.0
5.100000000 -0.300000000 1.050000000 1.0
5.100000000 -0.300000000 1.100000000 1.0
5.100000000 -0.300000000 1.150000000 1.0
5.100000000 -0.300000000 1.200000000 1.0
5.100000000 -0.300000000 1.250000000 1.0
5.100000000 -0.300000000 1.300000000 1.0
5.100000000 -0.300000000 1.350000000 1.0
5.100000000 -0.300000000 1.400000000 1.0
5.100000000 -0.300000000 1.450000000 1.0
5.100000000 -0.300000000 1.500000000 1.0
5.100000000 -0.300000000 1.550000000 1.0
5.100000000 -0.300000000 1.600000000 1.0
5.100000000 -0.300000000 1.650000000 1.0
5.100000000 -0.300000000 1.700000000 1.0
5.100000000 -0.300000000 1.750000000 1.0
5.100000000 -0.300000000 1.800000000 1.0
5.100000000 -0.300000000 1.850000000 1.0
5.100000000 -0.300000000 1.900000000 1.0
5.100000000 -0.300000000 1.950000000 1.0
5.100000000 -0.300000000 2.000000000 1.0
5.100000000 -0.300000000 2.050000000 1.0
5.100000000 -0.300000000 2.100000000 1.0
5.100000000 -0.250000000 0.900000000 1.0
5.100000000 -0.250000000 2.100000000 1.0
5.100000000 -0.200000000 0.900000000 1.0
5.100000000 -0.200000000 2.100000000 1.0
5.100000000 -0.150000000 0.900000000 1.0
5.100000000 -0.150000000 2.100000000 1.0
5.100000000 -0.100000000 0.900000000 1.0
5.100000000 -0.100000000 2.100000000 1.0
5.100000000 -0.050000000 0.900000000 1.0
5.100000000 -0.050000000 2.100000000 1.0
5.100000000 0.000000000 0.900000000 1.0
5.100000000 0.000000000 2.100000000 1.0
5.100000000 0.050000000 0.900000000 1.0
5.100000000 0.050000000 2.100000000 1.0
5.100000000 0.100000000 0.900000000 1.0
5.100000000 0.100000000 2.100000000 1.0
5.100000000 0.150000000 0.900000000 1.0
5.100000000 0.150000000 2.100000000 1.0
5.100000000 0.200000000 0.900000000 1.0
5.100000000 0.200000000 2.100000000 1.0
5.100000000 0.250000000 0.900000000 1.0
5.100000000 0.250000000 2.100000000 1.0
5.100000000 0.300000000 0.900000000 1.0
5.100000000 0.300000000 0.950000000 1.0
5.100000000 0.300000000 1.000000000 1.0
5.100000000 0.300000000 1.050000000 1.0
5.100000000 0.300000000 1.100000000 1.0
5.100000000 0.300000000 1.150000000 1.0
5.100000000 0.300000000 1.200000000 1.0
5.100000000 0.300000000 1.250000000 1.0
5.100000000 0.300000000 1.300000000 1.0
5.100000000 0.300000000 1.350000000 1.0
5.100000000 0.300000000 1.400000000 1.0
5.100000000 0.300000000 1.450000000 1.0
5.100000000 0.300000000 1.500000000 1.0
5.100000000 0.300000000 1.550000000 1.0
5.100000000 0.300000000 1.600000000 1.0
5.100000000 0.300000000 1.650000000 1.0
5.100000000 0.300000000 1.700000000 1.0
5.100000000 0.300000000 1.750000000 1.0
5.100000000 0.300000000 1.800000000 1.0
5.100000000 0.300000000 1.850000000 1.0
5.100000000 0.300000000 1.900000000 1.0
5.100000000 0.300000000 1.950000000 1.0
5.100000000 0.300000000 2.000000000 1.0
5.100000000 0.300000000 2.050000000 1.0
5.100000000 0.300000000 2.100000000 1.0
5.150000000 -0.300000000 0.900000000 1.0
5.150000000 -0.300000000 0.950000000 1.0
5.150000000 -0.300000000 1.000000000 1.0
5.150000000 -0.300000000 1.050000000 1.0
5.150000000 -0.300000000 1.100000000 1.0
5.150000000 -0.300000000 1.150000000 1.0
5.150000000 -0.300000000 1.200000000 1.0
5.150000000 -0.300000000 1.250000000 1.0
5.150000000 -0.300000000 1.300000000 1.0
5.150000000 -0.300000000 1.350000000 1.0
5.150000000 -0.300000000 1.400000000 1.0
5.150000000 -0.300000000 1.450000000 1.0
5.150000000 -0.300000000 1.500000000 1.0
5.150000000 -0.300000000 1.550000000 1.0
5.150000000 -0.300000000 1.600000000 1.0
5.150000000 -0.300000000 1.650000000 1.0
5.150000000 -0.300000000 1.700000000 1.0
5.150000000 -0.300000000 1.750000000 1.0
5.150000000 -0.300000000 1.800000000 1.0
5.150000000 -0.300000000 1.850000000 1.0
5.150000000 -0.300000000 1.900000000 1.0
5.150000000 -0.300000000 1.950000000 1.0
5.150000000 -0.300000000 2.000000000 1.0
5.150000000 -0.300000000 2.050000000 1.0
5.150000000 -0.300000000 2.100000000 1.0
5.150000000 -0.250000000 0.900000000 1.0
5.150000000 -0.250000000 2.100000000 1.0
5.150000000 -0.200000000 0.900000000 1.0
5.150000000 -0.200000000 2.100000000 1.0
5.150000000 -0.150000000 0.900000000 1.0
5.150000000 -0.150000000 2.100000000 1.0
5.150000000 -0.100000000 0.900000000 1.0
5.150000000 -0.100000000 2.100000000 1.0
5.150000000 -0.050000000 0.900000000 1.0
5.150000000 -0.050000000 2.100000000 1.0
5.150000000 0.000000000 0.900000000 1.0
5.150000000 0.000000000 2.100000000 1.0
5.150000000 0.050000000 0.900000000 1.0
5.150000000 0.050000000 2.100000000 1.0
5.150000000 0.100000000 0.900000000 1.0
5.150000000 0.100000000 2.100000000 1.0
5.150000000 0.150000000 0.900000000 1.0
5.150000000 0.150000000 2.100000000 1.0
5.150000000 0.200000000 0.900000000 1.0
5.150000000 0.200000000 2.100000000 1.0
5.150000000 0.250000000 0.900000000 1.0
5.150000000 0.250000000 2.100000000 1.0
5.150000000 0.300000000 0.900000000 1.0
5.150000000 0.300000000 0.950000000 1.0
5.150000000 0.300000000 1.000000000 1.0
5.150000000 0.300000000 1.050000000 1.0
5.150000000 0.300000000 1.100000000 1.0
5.150000000 0.300000000 1.150000000 1.0
5.150000000 0.300000000 1.200000000 1.0
5.150000000 0.300000000 1.250000000 1.0
5.150000000 0.300000000 1.300000000 1.0
5.150000000 0.300000000 1.350000000 1.0
5.150000000 0.300000000 1.400000000 1.0
5.150000000 0.300000000 1.450000000 1.0
5.150000000 0.300000000 1.500000000 1.0
5.150000000 0.300000000 1.550000000 1.0
5.150000000 0.300000000 1.600000000 1.0
5.150000000 0.300000000 1.650000000 1.0
5.150000000 0.300000000 1.700000000 1.0
5.150000000 0.300000000 1.750000000 1.0
5.150000000 0.300000000 1.800000000 1.0
5.150000000 0.300000000 1.850000000 1.0
5.150000000 0.300000000 1.900000000 1.0
5.150000000 0.300000000 1.950000000 1.0
5.150000000 0.300000000 2.000000000 1.0
5.150000000 0.300000000 2.050000000 1.0
5.150000000 0.300000000 2.100000000 1.0
5.200000000 -0.300000000 0.900000000 1.0
5.200000000 -0.300000000 0.950000000 1.0
5.200000000 -0.300000000 1.000000000 1.0
5.200000000 -0.300000000 1.050000000 1.0
5.200000000 -0.300000000 1.100000000 1.0
5.200000000 -0.300000000 1.150000000 1.0
5.200000000 -0.300000000 1.200000000 1.0
5.200000000 -0.300000000 1.250000000 1.0
5.200000000 -0.300000000 1.300000000 1.0
5.200000000 -0.300000000 1.350000000 1.0
5.200000000 -0.300000000 1.400000000 1.0
5.200000000 -0.300000000 1.450000000 1.0
5.200000000 -0.300000000 1.500000000 1.0
5.200000000 -0.300000000 1.550000000 1.0
5.200000000 -0.300000000 1.600000000 1.0
5.200000000 -0.300000000 1.650000000 1.0
5.200000000 -0.300000000 1.700000000 1.0
5.200000000 -0.300000000 1.750000000 1.0
5.200000000 -0.300000000 1.800000000 1.0
5.200000000 -0.300000000 1.850000000 1.0
5.200000000 -0.300000000 1.900000000 1.0
5.200000000 -0.300000000 1.950000000 1.0
5.200000000 -0.300000000 2.000000000 1.0
5.200000000 -0.300000000 2.050000000 1.0
5.200000000 -0.300000000 2.100000000 1.0
5.200000000 -0.250000000 0.900000000 1.0
5.200000000 -0.250000000 2.100000000 1.0
5.200000000 -0.200000000 0.900000000 1.0
5.200000000 -0.200000000 2.100000000 1.0
5.200000000 -0.150000000 0.900000000 1.0
5.200000000 -0.150000000 2.100000000 1.0
5.200000000 -0.100000000 0.900000000 1.0
5.200000000 -0.100000000 2.100000000 1.0
5.200000000 -0.050000000 0.900000000 1.0
5.200000000 -0.050000000 2.100000000 1.0
5.200000000 0.000000000 0.900000000 1.0
5.200000000 0.000000000 2.100000000 1.0
5.200000000 0.050000000 0.900000000 1.0
5.200000000 0.050000000 2.100000000 1.0
5.200000000 0.100000000 0.900000000 1.0
5.200000000 0.100000000 2.100000000 1.0
5.200000000 0.150000000 0.900000000 1.0
5.200000000 0.150000000 2.100000000 1.0
5.200000000 0.200000000 0.900000000 1.0
5.200000000 0.200000000 2.100000000 1.0
5.200000000 0.250000000 0.900000000 1.0
5.200000000 0.250000000 2.100000000 1.0
5.200000000 0.300000000 0.900000000 1.0
5.200000000 0.300000000 0.950000000 1.0
5.200000000 0.300000000 1.000000000 1.0
5.200000000 0.300000000 1.050000000 1.0
5.200000000 0.300000000 1.100000000 1.0
5.200000000 0.300000000 1.150000000 1.0
5.200000000 0.300000000 1.200000000 1.0
5.200000000 0.300000000 1.250000000 1.0
5.200000000 0.300000000 1.300000000 1.0
5.200000000 0.300000000 1.350000000 1.0
5.200000000 0.300000000 1.400000000 1.0
5.200000000 0.300000000 1.450000000 1.0
5.200000000 0.300000000 1.500000000 1.0
5.200000000 0.300000000 1.550000000 1.0
5.200000000 0.300000000 1.600000000 1.0
5.200000000 0.300000000 1.650000000 1.0
5.200000000 0.300000000 1.700000000 1.0
5.200000000 0.300000000 1.750000000 1.0
5.200000000 0.300000000 1.800000000 1.0
5.200000000 0.300000000 1.850000000 1.0
5.200000000 0.300000000 1.900000000 1.0
5.200000000 0.300000000 1.950000000 1.0
5.200000000 0.300000000 2.000000000 1.0
5.200000000 0.300000000 2.050000000 1.0
5.200000000 0.300000000 2.100000000 1.0
5.250000000 -0.300000000 0.900000000 1.0
5.250000000 -0.300000000 0.950000000 1.0
5.250000000 -0.300000000 1.000000000 1.0
5.250000000 -0.300000000 1.050000000 1.0
5.250000000 -0.300000000 1.100000000 1.0
5.250000000 -0.300000000 1.150000000 1.0
5.250000000 -0.300000000 1.200000000 1.0
5.250000000 -0.300000000 1.250000000 1.0
5.250000000 -0.300000000 1.300000000 1.0
5.250000000 -0.300000000 1.350000000 1.0
5.250000000 -0.300000000 1.400000000 1.0
5.250000000 -0.300000000 1.450000000 1.0
5.250000000 -0.300000000 1.500000000 1.0
5.250000000 -0.300000000 1.550000000 1.0
5.250000000 -0.300000000 1.600000000 1.0
5.250000000 -0.300000000 1.650000000 1.0
5.250000000 -0.300000000 1.700000000 1.0
5.250000000 -0.300000000 1.750000000 1.0
5.250000000 -0.300000000 1.800000000 1.0
5.250000000 -0.300000000 1.850000000 1.0
5.250000000 -0.300000000 1.900000000 1.0
5.250000000 -0.300000000 1.950000000 1.0
5.250000000 -0.300000000 2.000000000 1.0
5.250000000 -0.300000000 2.050000000 1.0
5.250000000 -0.300000000 2.100000000 1.0
5.250000000 -0.250000000 0.900000000 1.0
5.250000000 -0.250000000 2.100000000 1.0
5.250000000 -0.200000000 0.900000000 1.0
5.250000000 -0.200000000 2.100000000 1.0
5.250000000 -0.150000000 0.900000000 1.0
5.250000000 -0.150000000 2.100000000 1.0
5.250000000 -0.100000000 0.900000000 1.0
5.250000000 -0.100000000 2.100000000 1.0
5.250000000 -0.050000000 0.900000000 1.0
5.250000000 -0.050000000 2.100000000 1.0
5.250000000 0.000000000 0.900000000 1.0
5.250000000 0.000000000 2.100000000 1.0
5.250000000 0.050000000 0.900000000 1.0
5.250000000 0.050000000 2.100000000 1.0
5.250000000 0.100000000 0.900000000 1.0
5.250000000 0.100000000 2.100000000 1.0
5.250000000 0.150000000 0.900000000 1.0
5.250000000 0.150000000 2.100000000 1.0
5.250000000 0.200000000 0.900000000 1.0
5.250000000 0.200000000 2.100000000 1.0
5.250000000 0.250000000 0.900000000 1.0
5.250000000 0.250000000 2.100000000 1.0
5.250000000 0.300000000 0.900000000 1.0
5.250000000 0.300000000 0.950000000 1.0
5.250000000 0.300000000 1.000000000 1.0
5.250000000 0.300000000 1.050000000 1.0
5.250000000 0.300000000 1.100000000 1.0
5.250000000 0.300000000 1.150000000 1.0
5.250000000 0.300000000 1.200000000 1.0
5.250000000 0.300000000 1.250000000 1.0
5.250000000 0.300000000 1.300000000 1.0
5.250000000 0.300000000 1.350000000 1.0
5.250000000 0.300000000 1.400000000 1.0
5.250000000 0.300000000 1.450000000 1.0
5.250000000 0.300000000 1.500000000 1.0
5.250000000 0.300000000 1.550000000 1.0
5.250000000 0.300000000 1.600000000 1.0
5.250000000 0.300000000 1.650000000 1.0
5.250000000 0.300000000 1.700000000 1.0
5.250000000 0.300000000 1.750000000 1.0
5.250000000 0.300000000 1.800000000 1.0
5.250000000 0.300000000 1.850000000 1.0
5.250000000 0.300000000 1.900000000 1.0
5.250000000 0.300000000 1.950000000 1.0
5.250000000 0.300000000 2.000000000 1.0
5.250000000 0.300000000 2.050000000 1.0
5.250000000 0.300000000 2.100000000 1.0
5.300000000 -0.300000000 0.900000000 1.0
5.300000000 -0.300000000 0.950000000 1.0
5.300000000 -0.300000000 1.000000000 1.0
5.300000000 -0.300000000 1.050000000 1.0
5.300000000 -0.300000000 1.100000000 1.0
5.300000000 -0.300000000 1.150000000 1.0
5.300000000 -0.300000000 1.200000000 1.0
5.300000000 -0.300000000 1.250000000 1.0
5.300000000 -0.300000000 1.300000000 1.0
5.300000000 -0.300000000 1.350000000 1.0
5.300000000 -0.300000000 1.400000000 1.0
5.300000000 -0.300000000 1.450000000 1.0
5.300000000 -0.300000000 1.500000000 1.0
5.300000000 -0.300000000 1.550000000 1.0
5.300000000 -0.300000000 1.600000000 1.0
5.300000000 -0.300000000 1.650000000 1.0
5.300000000 -0.300000000 1.700000000 1.0
5.300000000 -0.300000000 1.750000000 1.0
5.300000000 -0.300000000 1.800000000 1.0
5.300000000 -0.300000000 1.850000000 1.0
5.300000000 -0.300000000 1.900000000 1.0
5.300000000 -0.300000000 1.950000000 1.0
5.300000000 -0.300000000 2.000000000 1.0
5.300000000 -0.300000000 2.050000000 1.0
5.300000000 -0.300000000 2.100000000 1.0
5.300000000 -0.250000000 0.900000000 1.0
5.300000000 -0.250000000 2.100000000 1.0
5.300000000 -0.200000000 0.900000000 1.0
5.300000000 -0.200000000 2.100000000 1.0
5.300000000 -0.150000000 0.900000000 1.0
5.300000000 -0.150000000 2.100000000 1.0
5.300000000 -0.100000000 0.900000000 1.0
5.300000000 -0.100000000 2.100000000 1.0
5.300000000 -0.050000000 0.900000000 1.0
5.300000000 -0.050000000 2.100000000 1.0
5.300000000 0.000000000 0.900000000 1.0
5.300000000 0.000000000 2.100000000 1.0
5.300000000 0.050000000 0.900000000 1.0
5.300000000 0.050000000 2.100000000 1.0
5.300000000 0.100000000 0.900000000 1.0
5.300000000 0.100000000 2.100000000 1.0
5.300000000 0.150000000 0.900000000 1.0
5.300000000 0.150000000 2.100000000 1.0
5.300000000 0.200000000 0.900000000 1.0
5.300000000 0.200000000 2.100000000 1.0
5.300000000 0.250000000 0.900000000 1.0
5.300000000 0.250000000 2.100000000 1.0
5.300000000 0.300000000 0.900000000 1.0
5.300000000 0.300000000 0.950000000 1.0
5.300000000 0.300000000 1.000000000 1.0
5.300000000 0.300000000 1.050000000 1.0
5.300000000 0.300000000 1.100000000 1.0
5.300000000 0.300000000 1.150000000 1.0
5.300000000 0.300000000 1.200000000 1.0
5.300000000 0.300000000 1.250000000 1.0
5.300000000 0.300000000 1.300000000 1.0
5.300000000 0.300000000 1.350000000 1.0
5.300000000 0.300000000 1.400000000 1.0
5.300000000 0.300000000 1.450000000 1.0
5.300000000 0.300000000 1.500000000 1.0
5.300000000 0.300000000 1.550000000 1.0
5.300000000 0.300000000 1.600000000 1.0
5.300000000 0.300000000 1.650000000 1.0
5.300000000 0.300000000 1.700000000 1.0
5.300000000 0.300000000 1.750000000 1.0
5.300000000 0.300000000 1.800000000 1.0
5.300000000 0.300000000 1.850000000 1.0
5.300000000 0.300000000 1.900000000 1.0
5.300000000 0.300000000 1.950000000 1.0
5.300000000 0.300000000 2.000000000 1.0
5.300000000 0.300000000 2.050000000 1.0
5.300000000 0.300000000 2.100000000 1.0
5.350000000 -0.300000000 0.900000000 1.0
5.350000000 -0.300000000 0.950000000 1.0
5.350000000 -0.300000000 1.000000000 1.0
5.350000000 -0.300000000 1.050000000 1.0
5.350000000 -0.300000000 1.100000000 1.0
5.350000000 -0.300000000 1.150000000 1.0
5.350000000 -0.300000000 1.200000000 1.0
5.350000000 -0.300000000 1.250000000 1.0
5.350000000 -0.300000000 1.300000000 1.0
5.350000000 -0.300000000 1.350000000 1.0
5.350000000 -0.300000000 1.400000000 1.0
5.350000000 -0.300000000 1.450000000 1.0
5.350000000 -0.300000000 1.500000000 1.0
5.350000000 -0.300000000 1.550000000 1.0
5.350000000 -0.300000000 1.600000000 1.0
5.350000000 -0.300000000 1.650000000 1.0
5.350000000 -0.300000000 1.700000000 1.0
5.350000000 -0.300000000 1.750000000 1.0
5.350000000 -0.300000000 1.800000000 1.0
5.350000000 -0.300000000 1.850000000 1.0
5.350000000 -0.300000000 1.900000000 1.0
5.350000000 -0.300000000 1.950000000 1.0
5.350000000 -0.300000000 2.000000000 1.0
5.350000000 -0.300000000 2.050000000 1.0
5.350000000 -0.300000000 2.100000000 1.0
5.350000000 -0.250000000 0.900000000 1.0
5.350000000 -0.250000000 2.100000000 1.0
5.350000000 -0.200000000 0.900000000 1.0
5.350000000 -0.200000000 2.100000000 1.0
5.350000000 -0.150000000 0.900000000 1.0
5.350000000 -0.150000000 2.100000000 1.0
5.350000000 -0.100000000 0.900000000 1.0
5.350000000 -0.100000000 2.100000000 1.0
5.350000000 -0.050000000 0.900000000 1.0
5.350000000 -0.050000000 2.100000000 1.0
5.350000000 0.000000000 0.900000000 1.0
5.350000000 0.000000000 2.100000000 1.0
5.350000000 0.050000000 0.900000000 1.0
5.350000000 0.050000000 2.100000000 1.0
5.350000000 0.100000000 0.900000000 1.0
5.350000000 0.100000000 2.100000000 1.0
5.350000000 0.150000000 0.900000000 1.0
5.350000000 0.150000000 2.100000000 1.0
5.350000000 0.200000000 0.900000000 1.0
5.350000000 0.200000000 2.100000000 1.0
5.350000000 0.250000000 0.900000000 1.0
5.350000000 0.250000000 2.100000000 1.0
5.350000000 0.300000000 0.900000000 1.0
5.350000000 0.300000000 0.950000000 1.0
5.350000000 0.300000000 1.000000000 1.0
5.350000000 0.300000000 1.050000000 1.0
5.350000000 0.300000000 1.100000000 1.0
5.350000000 0.300000000 1.150000000 1.0
5.350000000 0.300000000 1.200000000 1.0
5.350000000 0.300000000 1.250000000 1.0
5.350000000 0.300000000 1.300000000 1.0
5.350000000 0.300000000 1.350000000 1.0
5.350000000 0.300000000 1.400000000 1.0
5.350000000 0.300000000 1.450000000 1.0
5.350000000 0.300000000 1.500000000 1.0
5.350000000 0.300000000 1.550000000 1.0
5.350000000 0.300000000 1.600000000 1.0
5.350000000 0.300000000 1.650000000 1.0
5.350000000 0.300000000 1.700000000 1.0
5.350000000 0.300000000 1.750000000 1.0
5.350000000 0.300000000 1.800000000 1.0
5.350000000 0.300000000 1.850000000 1.0
5.350000000 0.300000000 1.900000000 1.0
5.350000000 0.300000000 1.950000000 1.0
5.350000000 0.300000000 2.000000000 1.0
5.350000000 0.300000000 2.050000000 1.0
5.350000000 0.300000000 2.100000000 1.0
5.400000000 -0.300000000 0.900000000 1.0
5.400000000 -0.300000000 0.950000000 1.0
5.400000000 -0.300000000 1.000000000 1.0
5.400000000 -0.300000000 1.050000000 1.0
5.400000000 -0.300000000 1.100000000 1.0
5.400000000 -0.300000000 1.150000000 1.0
5.400000000 -0.300000000 1.200000000 1.0
5.400000000 -0.300000000 1.250000000 1.0
5.400000000 -0.300000000 1.300000000 1.0
5.400000000 -0.300000000 1.350000000 1.0
5.400000000 -0.300000000 1.400000000 1.0
5.400000000 -0.300000000 1.450000000 1.0
5.400000000 -0.300000000 1.500000000 1.0
5.400000000 -0.300000000 1.550000000 1.0
5.400000000 -0.300000000 1.600000000 1.0
5.400000000 -0.300000000 1.650000000 1.0
5.400000000 -0.300000000 1.700000000 1.0
5.400000000 -0.300000000 1.750000000 1.0
5.400000000 -0.300000000 1.800000000 1.0
5.400000000 -0.300000000 1.850000000 1.0
5.400000000 -0.300000000 1.900000000 1.0
5.400000000 -0.300000000 1.950000000 1.0
5.400000000 -0.300000000 2.000000000 1.0
5.400000000 -0.300000000 2.050000000 1.0
5.400000000 -0.300000000 2.100000000 1.0
5.400000000 -0.250000000 0.900000000 1.0
5.400000000 -0.250000000 0.950000000 1.0
5.400000000 -0.250000000 1.000000000 1.0
5.400000000 -0.250000000 1.050000000 1.0
5.400000000 -0.250000000 1.100000000 1.0
5.400000000 -0.250000000 1.150000000 1.0
5.400000000 -0.250000000 1.200000000 1.0
5.400000000 -0.250000000 1.250000000 1.0
5.400000000 -0.250000000 1.300000000 1.0
5.400000000 -0.250000000 1.350000000 1.0
5.400000000 -0.250000000 1.400000000 1.0
5.400000000 -0.250000000 1.450000000 1.0
5.400000000 -0.250000000 1.500000000 1.0
5.400000000 -0.250000000 1.550000000 1.0
5.400000000 -0.250000000 1.600000000 1.0
5.400000000 -0.250000000 1.650000000 1.0
5.400000000 -0.250000000 1.700000000 1.0
5.400000000 -0.250000000 1.750000000 1.0
5.400000000 -0.250000000 1.800000000 1.0
5.400000000 -0.250000000 1.850000000 1.0
5.400000000 -0.250000000 1.900000000 1.0
5.400000000 -0.250000000 1.950000000 1.0
5.400000000 -0.250000000 2.000000000 1.0
5.400000000 -0.250000000 2.050000000 1.0
5.400000000 -0.250000000 2.100000000 1.0
5.400000000 -0.200000000 0.900000000 1.0
5.400000000 -0.200000000 0.950000000 1.0
5.400000000 -0.200000000 1.000000000 1.0
5.400000000 -0.200000000 1.050000000 1.0
5.400000000 -0.200000000 1.100000000 1.0
5.400000000 -0.200000000 1.150000000 1.0
5.400000000 -0.200000000 1.200000000 1.0
5.400000000 -0.200000000 1.250000000 1.0
5.400000000 -0.200000000 1.300000000 1.0
5.400000000 -0.200000000 1.350000000 1.0
5.400000000 -0.200000000 1.400000000 1.0
5.400000000 -0.200000000 1.450000000 1.0
5.400000000 -0.200000000 1.500000000 1.0
5.400000000 -0.200000000 1.550000000 1.0
5.400000000 -0.200000000 1.600000000 1.0
5.400000000 -0.200000000 1.650000000 1.0
5.400000000 -0.200000000 1.700000000 1.0
5.400000000 -0.200000000 1.750000000 1.0
5.400000000 -0.200000000 1.800000000 1.0
5.400000000 -0.200000000 1.850000000 1.0
5.400000000 -0.200000000 1.900000000 1.0
5.400000000 -0.200000000 1.950000000 1.0
5.400000000 -0.200000000 2.000000000 1.0
5.400000000 -0.200000000 2.050000000 1.0
5.400000000 -0.200000000 2.100000000 1.0
5.400000000 -0.150000000 0.900000000 1.0
5.400000000 -0.150000000 0.950000000 1.0
5.400000000 -0.150000000 1.000000000 1.0
5.400000000 -0.150000000 1.050000000 1.0
5.400000000 -0.150000000 1.100000000 1.0
5.400000000 -0.150000000 1.150000000 1.0
5.400000000 -0.150000000 1.200000000 1.0
5.400000000 -0.150000000 1.250000000 1.0
5.400000000 -0.150000000 1.300000000 1.0
5.400000000 -0.150000000 1.350000000 1.0
5.400000000 -0.150000000 1.400000000 1.0
5.400000000 -0.150000000 1.450000000 1.0
5.400000000 -0.150000000 1.500000000 1.0
5.400000000 -0.150000000 1.550000000 1.0
5.400000000 -0.150000000 1.600000000 1.0
5.400000000 -0.150000000 1.650000000 1.0
5.400000000 -0.150000000 1.700000000 1.0
5.400000000 -0.150000000 1.750000000 1.0
5.400000000 -0.150000000 1.800000000 1.0
5.400000000 -0.150000000 1.850000000 1.0
5.400000000 -0.150000000 1.900000000 1.0
5.400000000 -0.150000000 1.950000000 1.0
5.400000000 -0.150000000 2.000000000 1.0
5.400000000 -0.150000000 2.050000000 1.0
5.400000000 -0.150000000 2.100000000 1.0
5.400000000 -0.100000000 0.900000000 1.0
5.400000000 -0.100000000 0.950000000 1.0
5.400000000 -0.100000000 1.000000000 1.0
5.400000000 -0.100000000 1.050000000 1.0
5.400000000 -0.100000000 1.100000000 1.0
5.400000000 -0.100000000 1.150000000 1.0
5.400000000 -0.100000000 1.200000000 1.0
5.400000000 -0.100000000 1.250000000 1.0
5.400000000 -0.100000000 1.300000000 1.0
5.400000000 -0.100000000 1.350000000 1.0
5.400000000 -0.100000000 1.400000000 1.0
5.400000000 -0.100000000 1.450000000 1.0
5.400000000 -0.100000000 1.500000000 1.0
5.400000000 -0.100000000 1.550000000 1.0
5.400000000 -0.100000000 1.600000000 1.0
5.400000000 -0.100000000 1.650000000 1.0
5.400000000 -0.100000000 1.700000000 1.0
5.400000000 -0.100000000 1.750000000 1.0
5.400000000 -0.100000000 1.800000000 1.0
5.400000000 -0.100000000 1.850000000 1.0
5.400000000 -0.100000000 1.900000000 1.0
5.400000000 -0.100000000 1.950000000 1.0
5.400000000 -0.100000000 2.000000000 1.0
5.400000000 -0.100000000 2.050000000 1.0
5.400000000 -0.100000000 2.100000000 1.0
5.400000000 -0.050000000 0.900000000 1.0
5.400000000 -0.050000000 0.950000000 1.0
5.400000000 -0.050000000 1.000000000 1.0
5.400000000 -0.050000000 1.050000000 1.0
5.400000000 -0.050000000 1.100000000 1.0
5.400000000 -0.050000000 1.150000000 1.0
5.400000000 -0.050000000 1.200000000 1.0
5.400000000 -0.050000000 1.250000000 1.0
5.400000000 -0.050000000 1.300000000 1.0
5.400000000 -0.050000000 1.350000000 1.0
5.400000000 -0.050000000 1.400000000 1.0
5.400000000 -0.050000000 1.450000000 1.0
5.400000000 -0.050000000 1.500000000 1.0
5.400000000 -0.050000000 1.550000000 1.0
5.400000000 -0.050000000 1.600000000 1.0
5.400000000 -0.050000000 1.650000000 1.0
5.400000000 -0.050000000 1.700000000 1.0
5.400000000 -0.050000000 1.750000000 1.0
5.400000000 -0.050000000 1.800000000 1.0
5.400000000 -0.050000000 1.850000000 1.0
5.400000000 -0.050000000 1.900000000 1.0
5.400000000 -0.050000000 1.950000000 1.0
5.400000000 -0.050000000 2.000000000 1.0
5.400000000 -0.050000000 2.050000000 1.0
5.400000000 -0.050000000 2.100000000 1.0
5.400000000 0.000000000 0.900000000 1.0
5.400000000 0.000000000 0.950000000 1.0
5.400000000 0.000000000 1.000000000 1.0
5.400000000 0.000000000 1.050000000 1.0
5.400000000 0.000000000 1.100000000 1.0
5.400000000 0.000000000 1.150000000 1.0
5.400000000 0.000000000 1.200000000 1.0
5.400000000 0.000000000 1.250000000 1.0
5.400000000 0.000000000 1.300000000 1.0
5.400000000 0.000000000 1.350000000 1.0
5.400000000 0.000000000 1.400000000 1.0
5.400000000 0.000000000 1.450000000 1.0
5.400000000 0.000000000 1.500000000 1.0
5.400000000 0.000000000 1.550000000 1.0
5.400000000 0.000000000 1.600000000 1.0
5.400000000 0.000000000 1.650000000 1.0
5.400000000 0.000000000 1.700000000 1.0
5.400000000 0.000000000 1.750000000 1.0
5.400000000 0.000000000 1.800000000 1.0
5.400000000 0.000000000 1.850000000 1.0
5.400000000 0.000000000 1.900000000 1.0
5.400000000 0.000000000 1.950000000 1.0
5.400000000 0.000000000 2.000000000 1.0
5.400000000 0.000000000 2.050000000 1.0
5.400000000 0.000000000 2.100000000 1.0
5.400000000 0.050000000 0.900000000 1.0
5.400000000 0.050000000 0.950000000 1.0
5.400000000 0.050000000 1.000000000 1.0
5.400000000 0.050000000 1.050000000 1.0
5.400000000 0.050000000 1.100000000 1.0
5.400000000 0.050000000 1.150000000 1.0
5.400000000 0.050000000 1.200000000 1.0
5.400000000 0.050000000 1.250000000 1.0
5.400000000 0.050000000 1.300000000 1.0
5.400000000 0.050000000 1.350000000 1.0
5.400000000 0.050000000 1.400000000 1.0
5.400000000 0.050000000 1.450000000 1.0
5.400000000 0.050000000 1.500000000 1.0
5.400000000 0.050000000 1.550000000 1.0
5.400000000 0.050000000 1.600000000 1.0
5.400000000 0.050000000 1.650000000 1.0
5.400000000 0.050000000 1.700000000 1.0
5.400000000 0.050000000 1.750000000 1.0
5.400000000 0.050000000 1.800000000 1.0
5.400000000 0.050000000 1.850000000 1.0
5.400000000 0.050000000 1.900000000 1.0
5.400000000 0.050000000 1.950000000 1.0
5.400000000 0.050000000 2.000000000 1.0
5.400000000 0.050000000 2.050000000 1.0
5.400000000 0.050000000 2.100000000 1.0
5.400000000 0.100000000 0.900000000 1.0
5.400000000 0.100000000 0.950000000 1.0
5.400000000 0.100000000 1.000000000 1.0
5.400000000 0.100000000 1.050000000 1.0
5.400000000 0.100000000 1.100000000 1.0
5.400000000 0.100000000 1.150000000 1.0
5.400000000 0.100000000 1.200000000 1.0
5.400000000 0.100000000 1.250000000 1.0
5.400000000 0.100000000 1.300000000 1.0
5.400000000 0.100000000 1.350000000 1.0
5.400000000 0.100000000 1.400000000 1.0
5.400000000 0.100000000 1.450000000 1.0
5.400000000 0.100000000 1.500000000 1.0
5.400000000 0.100000000 1.550000000 1.0
5.400000000 0.100000000 1.600000000 1.0
5.400000000 0.100000000 1.650000000 1.0
5.400000000 0.100000000 1.700000000 1.0
5.400000000 0.100000000 1.750000000 1.0
5.400000000 0.100000000 1.800000000 1.0
5.400000000 0.100000000 1.850000000 1.0
5.400000000 0.100000000 1.900000000 1.0
5.400000000 0.100000000 1.950000000 1.0
5.400000000 0.100000000 2.000000000 1.0
5.400000000 0.100000000 2.050000000 1.0
5.400000000 0.100000000 2.100000000 1.0
5.400000000 0.150000000 0.900000000 1.0
5.400000000 0.150000000 0.950000000 1.0
5.400000000 0.150000000 1.000000000 1.0
5.400000000 0.150000000 1.050000000 1.0
5.400000000 0.150000000 1.100000000 1.0
5.400000000 0.150000000 1.150000000 1.0
5.400000000 0.150000000 1.200000000 1.0
5.400000000 0.150000000 1.250000000 1.0
5.400000000 0.150000000 1.300000000 1.0
5.400000000 0.150000000 1.350000000 1.0
5.400000000 0.150000000 1.400000000 1.0
5.400000000 0.150000000 1.450000000 1.0
5.400000000 0.150000000 1.500000000 1.0
5.400000000 0.150000000 1.550000000 1.0
5.400000000 0.150000000 1.600000000 1.0
5.400000000 0.150000000 1.650000000 1.0
5.400000000 0.150000000 1.700000000 1.0
5.400000000 0.150000000 1.750000000 1.0
5.400000000 0.150000000 1.800000000 1.0
5.400000000 0.150000000 1.850000000 1.0
5.400000000 0.150000000 1.900000000 1.0
5.400000000 0.150000000 1.950000000 1.0
5.400000000 0.150000000 2.000000000 1.0
5.400000000 0.150000000 2.050000000 1.0
5.400000000 0.150000000 2.100000000 1.0
5.400000000 0.200000000 0.900000000 1.0
5.400000000 0.200000000 0.950000000 1.0
5.400000000 0.200000000 1.000000000 1.0
5.400000000 0.200000000 1.050000000 1.0
5.400000000 0.200000000 1.100000000 1.0
5.400000000 0.200000000 1.150000000 1.0
5.400000000 0.200000000 1.200000000 1.0
5.400000000 0.200000000 1.250000000 1.0
5.400000000 0.200000000 1.300000000 1.0
5.400000000 0.200000000 1.350000000 1.0
5.400000000 0.200000000 1.400000000 1.0
5.400000000 0.200000000 1.450000000 1.0
5.400000000 0.200000000 1.500000000 1.0
5.400000000 0.200000000 1.550000000 1.0
5.400000000 0.200000000 1.600000000 1.0
5.400000000 0.200000000 1.650000000 1.0
5.400000000 0.200000000 1.700000000 1.0
5.400000000 0.200000000 1.750000000 1.0
5.400000000 0.200000000 1.800000000 1.0
5.400000000 0.200000000 1.850000000 1.0
5.400000000 0.200000000 1.900000000 1.0
5.400000000 0.200000000 1.950000000 1.0
5.400000000 0.200000000 2.000000000 1.0
5.400000000 0.200000000 2.050000000 1.0
5.400000000 0.200000000 2.100000000 1.0
5.400000000 0.250000000 0.900000000 1.0
5.400000000 0.250000000 0.950000000 1.0
5.400000000 0.250000000 1.000000000 1.0
5.400000000 0.250000000 1.050000000 1.0
5.400000000 0.250000000 1.100000000 1.0
5.400000000 0.250000000 1.150000000 1.0
5.400000000 0.250000000 1.200000000 1.0
5.400000000 0.250000000 1.250000000 1.0
5.400000000 0.250000000 1.300000000 1.0
5.400000000 0.250000000 1.350000000 1.0
5.400000000 0.250000000 1.400000000 1.0
5.400000000 0.250000000 1.450000000 1.0
5.400000000 0.250000000 1.500000000 1.0
5.400000000 0.250000000 1.550000000 1.0
5.400000000 0.250000000 1.600000000 1.0
5.400000000 0.250000000 1.650000000 1.0
5.400000000 0.250000000 1.700000000 1.0
5.400000000 0.250000000 1.750000000 1.0
5.400000000 0.250000000 1.800000000 1.0
5.400000000 0.250000000 1.850000000 1.0
5.400000000 0.250000000 1.900000000 1.0
5.400000000 0.250000000 1.950000000 1.0
5.400000000 0.250000000 2.000000000 1.0
5.400000000 0.250000000 2.050000000 1.0
5.400000000 0.250000000 2.100000000 1.0
5.400000000 0.300000000 0.900000000 1.0
5.400000000 0.300000000 0.950000000 1.0
5.400000000 0.300000000 1.000000000 1.0
5.400000000 0.300000000 1.050000000 1.0
5.400000000 0.300000000 1.100000000 1.0
5.400000000 0.300000000 1.150000000 1.0
5.400000000 0.300000000 1.200000000 1.0
5.400000000 0.300000000 1.250000000 1.0
5.400000000 0.300000000 1.300000000 1.0
5.400000000 0.300000000 1.350000000 1.0
5.400000000 0.300000000 1.400000000 1.0
5.400000000 0.300000000 1.450000000 1.0
5.400000000 0.300000000 1.500000000 1.0
5.400000000 0.300000000 1.550000000 1.0
5.400000000 0.300000000 1.600000000 1.0
5.400000000 0.300000000 1.650000000 1.0
5.400000000 0.300000000 1.700000000 1.0
5.400000000 0.300000000 1.750000000 1.0
5.400000000 0.300000000 1.800000000 1.0
5.400000000 0.300000000 1.850000000 1.0
5.400000000 0.300000000 1.900000000 1.0
5.400000000 0.300000000 1.950000000 1.0
5.400000000 0.300000000 2.000000000 1.0
5.400000000 0.300000000 2.050000000 1.0
5.400000000 0.300000000 2.100000000 1.0
